<svg xmlns="http://www.w3.org/2000/svg" xmlns:xlink="http://www.w3.org/1999/xlink" id="Layer_1" x="0" y="0" version="1.1" viewBox="0 0 40 40" style="enable-background:new 0 0 40 40" xml:space="preserve"><style type="text/css">.st0{fill:url(#SVGID_1_)}.st1{fill:url(#SVGID_2_)}.st2{fill:#fff}.st3{fill:#fc9965}.st4{fill:#ff2d55}.st5{fill:url(#SVGID_3_)}.st6{fill:#ffbc5b}.st7{fill:#ffc95b}</style><linearGradient id="SVGID_1_" x1="474.567" x2="437.275" y1="-2347.178" y2="-2347.178" gradientTransform="matrix(0 1 -1 0 -2327.1785 -436.0419)" gradientUnits="userSpaceOnUse"><stop offset=".001" style="stop-color:#ff2d55"/><stop offset="1" style="stop-color:#ffbc5b"/></linearGradient><path d="M37,26.2V13.6c0-2.1-1.1-4.1-3-5.2L23,2.1c-1.9-1.1-4.1-1.1-6,0L6,8.4c-1.9,1.1-3,3.1-3,5.2v12.6	c0,2.1,1.1,4.1,3,5.2l11,6.3c1.9,1.1,4.1,1.1,6,0l11-6.3C35.8,30.3,37,28.4,37,26.2z" class="st0"/><title>Asset 1</title><linearGradient id="SVGID_2_" x1="-283.685" x2="-283.685" y1="415.275" y2="415.211" gradientTransform="matrix(125 0 0 -150 35481.6992 62305)" gradientUnits="userSpaceOnUse"><stop offset="0" style="stop-color:#a524b3"/><stop offset="1" style="stop-color:#ff2d55"/></linearGradient><path d="M17,13.8v9.6h8L17,13.8z" class="st1"/><path d="M9,23.4h8v-9.6L9,23.4z" class="st2"/><path d="M10.5,26c0.7,1,1.6,1.8,2.6,2.6h15.4c1-0.7,1.8-1.6,2.6-2.6H10.5z" class="st3"/><path d="M13.1,28.6c2.1,1.6,4.8,2.6,7.7,2.6s5.5-1,7.7-2.6H13.1z" class="st4"/><linearGradient id="SVGID_3_" x1="-284.512" x2="-284.512" y1="415.328" y2="415.264" gradientTransform="matrix(91.7 0 0 -110 26117.7988 45705)" gradientUnits="userSpaceOnUse"><stop offset="0" style="stop-color:#a524b3"/><stop offset="1" style="stop-color:#ff2d55"/></linearGradient><path d="M25.1,18.9v7H31L25.1,18.9z" class="st5"/><path d="M25.1,23.4H9c0.4,0.9,0.9,1.8,1.5,2.6h14.6L25.1,23.4L25.1,23.4z" class="st6"/><path d="M19.3,26h5.9v-7L19.3,26z" class="st2"/><circle cx="25.1" cy="13.8" r="3.2" class="st7"/><circle cx="17" cy="10.3" r="1.6" class="st7"/></svg>