<svg xmlns="http://www.w3.org/2000/svg" xmlns:xlink="http://www.w3.org/1999/xlink" id="Layer_1" x="0" y="0" version="1.1" viewBox="0 0 40 40" style="enable-background:new 0 0 40 40" xml:space="preserve"><style type="text/css">.st0{fill:url(#SVGID_1_)}.st1{fill:#fff}</style><linearGradient id="SVGID_1_" x1="20" x2="20" y1="18.625" y2="-18.625" gradientTransform="matrix(1 0 0 1 0 20)" gradientUnits="userSpaceOnUse"><stop offset="0" style="stop-color:#001245"/><stop offset=".301" style="stop-color:#071e54"/><stop offset=".876" style="stop-color:#1a3e7b"/><stop offset="1" style="stop-color:#1f4684"/></linearGradient><path d="M37,26.3V13.7c0-2.1-1.1-4.1-3-5.2L23,2.2c-1.9-1.1-4.1-1.1-6,0L6,8.5c-1.9,1.1-3,3.1-3,5.2v12.6	c0,2.1,1.1,4.1,3,5.2l11,6.3c1.9,1.1,4.1,1.1,6,0l11-6.3C35.8,30.4,37,28.5,37,26.3z" class="st0"/><title>Asset 1</title><g><path d="M25.8,10H14.2l-1.3,5.9h14.3L25.8,10z M16.2,24v-3.9l-3.4-2.2l-3.9,2.9l5.3,9.2h2.1l2.5-2.4v-1.2L16.2,24z" class="st1"/><path d="M23.8,16.8h-7.5l1.2,3.3l-0.4,3.7h5.7l-0.4-3.7L23.8,16.8z" class="st1"/><path d="M27.2,17.9l-3.4,2.2V24l-2.6,2.5v1.2l2.5,2.3h2.1l5.3-9.2L27.2,17.9z" class="st1"/></g></svg>