<svg xmlns="http://www.w3.org/2000/svg" xmlns:xlink="http://www.w3.org/1999/xlink" id="Layer_1" x="0" y="0" version="1.1" viewBox="0 0 40 40" style="enable-background:new 0 0 40 40" xml:space="preserve"><style type="text/css">.st0{fill:url(#SVGID_1_)}.st1{fill:#fff}</style><linearGradient id="SVGID_1_" x1="384.567" x2="347.275" y1="2479.178" y2="2479.178" gradientTransform="matrix(0 1 1 0 -2459.1785 -346.0419)" gradientUnits="userSpaceOnUse"><stop offset=".001" style="stop-color:#02afe8"/><stop offset="1" style="stop-color:#67f8be"/></linearGradient><path d="M37,26.2V13.6c0-2.1-1.1-4.1-3-5.2L23,2.1c-1.9-1.1-4.1-1.1-6,0L6,8.4c-1.9,1.1-3,3.1-3,5.2v12.6	c0,2.1,1.1,4.1,3,5.2l11,6.3c1.9,1.1,4.1,1.1,6,0l11-6.3C35.8,30.3,37,28.4,37,26.2z" class="st0"/><title>Asset 1</title><path id="Shape" d="M25,11.5c-2,0-3.7,1.6-3.7,3.7v4.1c-0.4,0-0.8,0-1.2,0c-0.4,0-0.8,0-1.2,0v-4.1c0-2-1.7-3.6-3.7-3.6	c-2,0-3.6,1.6-3.6,3.6v9.7c0,2,1.7,3.6,3.7,3.6c2,0,3.6-1.6,3.6-3.6v-4.1c0.4,0,0.8,0,1.2,0c0.4,0,0.8,0,1.2,0v4.1	c0,2,1.7,3.6,3.7,3.6c2,0,3.6-1.6,3.6-3.6v-9.7C28.7,13.2,27,11.5,25,11.5z M15.3,13c1.2,0,2.2,1,2.2,2.2v4.3	c-1.1,0.2-2.1,0.5-3.1,0.9c-0.4,0.2-0.8,0.4-1.2,0.7v-5.9C13.2,14,14.2,13,15.3,13z M17.5,24.9c0,1.2-1,2.2-2.2,2.2	c-1.2,0-2.2-1-2.2-2.2c0,0,0,0,0,0v-1c0-0.9,0.7-1.7,1.8-2.2c0.8-0.3,1.6-0.6,2.5-0.7L17.5,24.9L17.5,24.9z M25,27	c-1.2,0-2.2-1-2.2-2.2v-4.3c1.1-0.2,2.1-0.5,3.1-0.9c0.4-0.2,0.8-0.4,1.2-0.7v5.9C27.2,26.1,26.2,27,25,27L25,27z M25.4,18.3	c-0.8,0.3-1.6,0.6-2.5,0.7v-3.9c0-1.2,1-2.2,2.2-2.2c1.2,0,2.2,1,2.2,2.2c0,0,0,0,0,0v1C27.2,17,26.5,17.8,25.4,18.3z" class="st1"/></svg>