<svg xmlns="http://www.w3.org/2000/svg" xmlns:xlink="http://www.w3.org/1999/xlink" id="Layer_1" x="0" y="0" version="1.1" viewBox="0 0 40 40" style="enable-background:new 0 0 40 40" xml:space="preserve"><style type="text/css">.st0{fill:url(#SVGID_1_)}.st1{fill:#fefefe}</style><linearGradient id="SVGID_1_" x1="20" x2="20" y1="18.625" y2="-18.625" gradientTransform="matrix(1 0 0 1 0 20)" gradientUnits="userSpaceOnUse"><stop offset="0" style="stop-color:#bf221f"/><stop offset="1" style="stop-color:#e84142"/></linearGradient><path d="M37,26.3V13.7c0-2.1-1.1-4.1-3-5.2L23,2.2c-1.9-1.1-4.1-1.1-6,0L6,8.5c-1.9,1.1-3,3.1-3,5.2v12.6	c0,2.1,1.1,4.1,3,5.2l11,6.3c1.9,1.1,4.1,1.1,6,0l11-6.3C35.8,30.4,37,28.5,37,26.3z" class="st0"/><title>Asset 1</title><g><path d="M13.2,28.8c-1.1,0-2,0-2.9,0c-0.2,0-0.4,0-0.6-0.1c-0.5-0.1-0.8-0.6-0.6-1.1c0.1-0.3,0.3-0.6,0.4-0.8 c1.6-2.8,3.1-5.5,4.7-8.3c1.6-2.8,3.2-5.6,4.8-8.4c0.1-0.2,0.2-0.4,0.3-0.5c0.3-0.4,1.1-0.5,1.4,0c0.2,0.2,0.3,0.5,0.5,0.8 c0.8,1.4,1.6,2.7,2.3,4.1c0.4,0.7,0.5,1.5,0.3,2.2c-0.1,0.3-0.3,0.6-0.4,0.9c-1.8,3.1-3.5,6.2-5.3,9.4c-0.2,0.4-0.4,0.8-0.8,1.1 c-0.5,0.4-1,0.6-1.6,0.7C14.7,28.8,13.8,28.8,13.2,28.8z" class="st1"/><path d="M26.5,28.8c-1.1,0-2.1,0-3.2,0c-0.2,0-0.4,0-0.6,0c-0.5-0.1-0.9-0.6-0.7-1.1c0.1-0.3,0.3-0.7,0.5-1 c1-1.7,2-3.3,2.9-5c0.1-0.2,0.2-0.3,0.3-0.5c0.3-0.4,1-0.4,1.3,0c0.2,0.3,0.4,0.6,0.6,0.9c1,1.7,2,3.3,2.9,5 c0.1,0.2,0.2,0.4,0.3,0.5c0.2,0.5-0.2,1-0.7,1.1c-0.3,0-0.5,0-0.8,0C28.5,28.8,27.5,28.8,26.5,28.8C26.5,28.8,26.5,28.8,26.5,28.8z" class="st1"/></g></svg>