<svg xmlns="http://www.w3.org/2000/svg" xmlns:xlink="http://www.w3.org/1999/xlink" id="Layer_1" x="0" y="0" version="1.1" viewBox="0 0 40 40" style="enable-background:new 0 0 40 40" xml:space="preserve"><style type="text/css">.st0{fill:url(#SVGID_1_)}.st1{fill:#d8d8d8}.st2{fill:#fff}.st3{fill:#f0f0f0}</style><linearGradient id="SVGID_1_" x1="167.417" x2="204.709" y1="-1117.324" y2="-1117.324" gradientTransform="matrix(0 1 -1 0 -1097.1785 -166.0419)" gradientUnits="userSpaceOnUse"><stop offset=".001" style="stop-color:#ff5000"/><stop offset="1" style="stop-color:#662d91"/></linearGradient><path d="M37.1,26.3V13.7c0-2.1-1.1-4.1-3-5.2l-11-6.3c-1.9-1.1-4.1-1.1-6,0l-11,6.3c-1.9,1.1-3,3.1-3,5.2v12.6	c0,2.1,1.1,4.1,3,5.2l11,6.3c1.9,1.1,4.1,1.1,6,0l11-6.3C35.9,30.4,37.1,28.5,37.1,26.3z" class="st0"/><title>Asset 1</title><polygon points="24.7 24.1 24.7 24.1 16.1 24.1 16.1 24.1 9.8 27.7 30.8 27.6" class="st1"/><polygon points="20.4 16.9 20.4 16.9 20.4 9.6 9.8 27.7 16.1 24.1" class="st2"/><polygon points="24.7 24.1 30.8 27.6 20.4 9.6 20.4 17" class="st3"/></svg>