<svg xmlns="http://www.w3.org/2000/svg" xmlns:xlink="http://www.w3.org/1999/xlink" id="Layer_1" x="0" y="0" version="1.1" viewBox="0 0 40 40" style="enable-background:new 0 0 40 40" xml:space="preserve"><style type="text/css">.st0{fill:url(#SVGID_1_)}.st1{fill:#fff}</style><linearGradient id="SVGID_1_" x1="384.567" x2="347.275" y1="2479.178" y2="2479.178" gradientTransform="matrix(0 1 1 0 -2459.1785 -346.0419)" gradientUnits="userSpaceOnUse"><stop offset=".001" style="stop-color:#02afe8"/><stop offset="1" style="stop-color:#67f8be"/></linearGradient><path d="M37,26.2V13.6c0-2.1-1.1-4.1-3-5.2L23,2.1c-1.9-1.1-4.1-1.1-6,0L6,8.4c-1.9,1.1-3,3.1-3,5.2v12.6	c0,2.1,1.1,4.1,3,5.2l11,6.3c1.9,1.1,4.1,1.1,6,0l11-6.3C35.8,30.3,37,28.4,37,26.2z" class="st0"/><title>Asset 1</title><path id="Shape" d="M25.3,10.9c-2.1,0-3.9,1.7-3.9,3.9v4.3c-0.4,0-0.8,0-1.2,0c-0.4,0-0.8,0-1.2,0v-4.4	c0-2.1-1.8-3.9-3.9-3.8c-2.1,0-3.8,1.7-3.8,3.8v10.3c0,2.1,1.8,3.9,3.9,3.8c2.1,0,3.8-1.7,3.8-3.8v-4.3c0.4,0,0.8,0,1.2,0	c0.4,0,0.8,0,1.2,0v4.4c0,2.1,1.8,3.9,3.9,3.8c2.1,0,3.8-1.7,3.8-3.8V14.8C29.2,12.7,27.4,10.9,25.3,10.9z M15.1,12.5	c1.3,0,2.3,1,2.3,2.3v4.5c-1.1,0.2-2.2,0.5-3.3,0.9c-0.5,0.2-0.9,0.5-1.3,0.8v-6.2C12.8,13.5,13.8,12.5,15.1,12.5z M17.4,25.1	c0,1.3-1,2.3-2.3,2.3s-2.3-1-2.3-2.3c0,0,0,0,0,0v-1c0-0.9,0.7-1.8,1.9-2.3c0.9-0.4,1.7-0.6,2.7-0.8L17.4,25.1L17.4,25.1z M25.3,27.3c-1.3,0-2.3-1-2.3-2.3v-4.5c1.1-0.2,2.2-0.5,3.3-0.9c0.5-0.2,0.9-0.5,1.3-0.8v6.2C27.6,26.3,26.6,27.3,25.3,27.3	L25.3,27.3z M25.7,18.1c-0.9,0.4-1.7,0.6-2.7,0.8v-4.1c0-1.3,1-2.3,2.3-2.3s2.3,1,2.3,2.3c0,0,0,0,0,0v1	C27.6,16.7,26.9,17.6,25.7,18.1z" class="st1"/></svg>