<svg xmlns="http://www.w3.org/2000/svg" xmlns:xlink="http://www.w3.org/1999/xlink" id="Layer_1" x="0" y="0" version="1.1" viewBox="0 0 40 40" style="enable-background:new 0 0 40 40" xml:space="preserve"><style type="text/css">.st0{fill:url(#SVGID_1_)}.st1{fill:#fff}.st2{fill:url(#SVGID_2_)}.st3{fill:url(#SVGID_3_)}.st3,.st4{stroke:#ac562a;stroke-width:1.0716}.st4,.st5{fill:#ac562a}</style><linearGradient id="SVGID_1_" x1="166.792" x2="204.084" y1="-1122.228" y2="-1122.228" gradientTransform="matrix(6.123234e-17 1 -1 6.123234e-17 -1102.1785 -165.4169)" gradientUnits="userSpaceOnUse"><stop offset=".001" style="stop-color:#f9b758"/><stop offset="1" style="stop-color:#b36234"/></linearGradient><path d="M37.1,26.3V13.7c0-2.1-1.1-4.1-3-5.2l-11-6.3c-1.8-1.1-4.2-1.1-6,0l-11,6.3c-1.9,1.1-3,3.1-3,5.2v12.6	c0,2.1,1.1,4.1,3,5.2l11,6.3c1.8,1.1,4.2,1.1,6,0l11-6.3C35.8,30.4,37.1,28.5,37.1,26.3z" class="st0"/><path d="M24.9,19.6c0.1,0,0.3,0,0.3,0.2l0,0l0.3,1c0,0.1-0.1,0.3-0.2,0.3s-0.3-0.1-0.3-0.2l-0.3-1	c-0.1-0.1,0-0.2,0.1-0.3C24.8,19.7,24.9,19.6,24.9,19.6z M17.4,12.3c-0.1-0.1-0.1-0.3,0.1-0.4l0.9-0.6c0.1-0.1,0.3-0.1,0.4,0.1	c0.1,0.2,0.1,0.3-0.1,0.5l-0.9,0.5C17.7,12.4,17.5,12.4,17.4,12.3z" class="st1"/><linearGradient id="SVGID_2_" x1="18.509" x2="24.768" y1="22.738" y2="22.738" gradientTransform="matrix(1 0 0 -1 0 42)" gradientUnits="userSpaceOnUse"><stop offset=".001" style="stop-color:#f9b758"/><stop offset="1" style="stop-color:#c16b3d"/></linearGradient><path d="M21.7,15.7c-1.1-0.2-2.2,0-3.2,0.5c1.5-0.5,3.1-0.1,4.2,0.9c1.6,1.5,1.6,3.8,0,5.3c-0.2,0.2-0.4,0.3-0.6,0.5	c0.6-0.2,1.1-0.5,1.6-0.9c1.1-1,1.4-2.5,1-3.8C23.4,17.7,22.3,16.9,21.7,15.7z" class="st2"/><radialGradient id="SVGID_3_" cx="-929.581" cy="-479.158" r=".776" gradientTransform="matrix(0 12.1394 -12.017 0 -5738.0068 11304.4707)" gradientUnits="userSpaceOnUse"><stop offset=".334" style="stop-color:#f7b450"/><stop offset=".648" style="stop-color:#ffc977"/><stop offset="1" style="stop-color:#f90"/></radialGradient><path d="M28,24.3L28,24.3c-2.3,4.3-7.7,6-12.1,3.7c0,0-0.1,0-0.1-0.1c-4.4-2.4-6-7.9-3.6-12.3c1.5-2.8,4.4-4.6,7.5-4.7	c0.4,0,0.8,0.2,0.9,0.6c0.2,0.4,0.3,0.9,0.3,1.4v0.6c0,0.9,0.2,1.8,0.7,2.6c-1.9-0.7-4.1,0.1-5,1.9c-1.1,2-0.4,4.5,1.6,5.6	s4.5,0.4,5.6-1.6l0,0l0,0c0.6-1.1,0.7-2.4,0.2-3.5c0.8,0.4,1.7,0.6,2.6,0.6c0.5,0,1-0.1,1.5-0.2c0.3-0.1,0.5-0.1,0.8,0.1	c0.2,0.1,0.3,0.3,0.3,0.5C29.2,21.1,28.8,22.8,28,24.3z" class="st3"/><path d="M25.6,22.5l0.3-0.1l0,0c0.2,0.6,0.1,1.2-0.3,1.7v0.1c-0.1,0.2-0.2,0.4-0.3,0.7c-0.1,0.3-0.1,0.6,0,0.9	c0.1,0.2,0.3,0.4,0.5,0.5c0.3,0,0.7,0,0.9-0.3c1.5-1.8,2.3-4.1,2.2-6.4c0-0.2-0.1-0.4-0.3-0.5C28.4,19,28.1,19,27.8,19	c-0.5,0.1-1,0.2-1.4,0.2c-0.9,0-1.8-0.2-2.6-0.7c0.4,1.1,0.4,2.4-0.1,3.5c-0.1,0.2-0.2,0.4-0.3,0.5c0.3-0.1,0.6-0.3,0.9-0.5	C24.9,21.6,25.4,21.9,25.6,22.5z M25.6,22.5c0.1,0.5,0,1-0.3,1.4c-0.1,0.2-0.2,0.5-0.3,0.8L25.6,22.5z M19.4,15.8L19.4,15.8	c-0.7,0.2-1.5,0.2-2.2-0.1c-0.5-0.3-0.9-0.8-1.2-1.3c-0.3-0.5-0.3-1.1-0.2-1.7c0.1-0.5,0.4-0.9,0.8-1.1c1.1-0.5,2.2-0.7,3.4-0.7	c0.3,0,0.6,0.2,0.8,0.5c0.2,0.4,0.3,0.8,0.2,1.2c-0.1,0.3-0.1,0.6-0.1,0.9c0,0.9,0.2,1.8,0.7,2.6C20.9,15.8,20.1,15.7,19.4,15.8z" class="st4"/><circle cx="13.3" cy="17.9" r=".5" class="st5"/><circle cx="20.1" cy="26.1" r=".5" class="st5"/><circle cx="17.2" cy="26.5" r=".8" class="st5"/><title>Asset 1</title></svg>