<svg xmlns="http://www.w3.org/2000/svg" xmlns:xlink="http://www.w3.org/1999/xlink" id="Layer_1" x="0" y="0" version="1.1" viewBox="0 0 40 40" style="enable-background:new 0 0 40 40" xml:space="preserve"><style type="text/css">.st0{fill:url(#SVGID_1_)}.st1,.st2{fill:none;stroke:url(#SVGID_2_);stroke-miterlimit:10}.st2{stroke:url(#SVGID_3_);stroke-width:.869}.st3{fill:#fff}</style><linearGradient id="SVGID_1_" x1="20" x2="20" y1="-7.872" y2="30.277" gradientUnits="userSpaceOnUse"><stop offset="0" style="stop-color:#23d979"/><stop offset="1" style="stop-color:#26a17b"/></linearGradient><path d="M37,26.3V13.7c0-2.1-1.1-4.1-3-5.2L23,2.2c-1.9-1.1-4.1-1.1-6,0L6,8.5c-1.9,1.1-3,3.1-3,5.2v12.6	c0,2.1,1.1,4.1,3,5.2l11,6.3c1.9,1.1,4.1,1.1,6,0l11-6.3C35.8,30.4,37,28.5,37,26.3z" class="st0"/><linearGradient id="SVGID_2_" x1="1581.74" x2="2037.908" y1="-148.627" y2="307.541" gradientUnits="userSpaceOnUse"><stop offset="0" style="stop-color:#455df0"/><stop offset="1" style="stop-color:#345d9d"/></linearGradient><rect width="297.2" height="613.1" x="1661.2" y="-227.1" class="st1"/><linearGradient id="SVGID_3_" x1="1297.516" x2="1708.553" y1="-458.814" y2="-47.778" gradientUnits="userSpaceOnUse"><stop offset="0" style="stop-color:#455df0"/><stop offset="1" style="stop-color:#345d9d"/></linearGradient><polygon points="1661.2 -1.7 1206.6 -277.7 1206.6 -367 1661.2 -367" class="st2"/><path d="M22,20.7L22,20.7c-0.1,0-0.7,0-2,0c-1,0-1.8,0-2,0v0c-4-0.2-7-0.9-7-1.7c0-0.8,3-1.5,7-1.7V20	c0.3,0,1,0.1,2.1,0.1c1.2,0,1.9-0.1,2-0.1v-2.7c4,0.2,7,0.9,7,1.7C29,19.8,26.1,20.5,22,20.7 M22,17v-2.4h5.6v-3.7H12.4v3.7H18V17	c-4.6,0.2-8,1.1-8,2.2c0,1.1,3.4,2,8,2.2v7.9H22v-7.9c4.5-0.2,8-1.1,8-2.2C30,18.1,26.6,17.2,22,17" class="st3"/></svg>