<svg xmlns="http://www.w3.org/2000/svg" xmlns:xlink="http://www.w3.org/1999/xlink" id="Layer_1" x="0" y="0" version="1.1" viewBox="0 0 40 40" style="enable-background:new 0 0 40 40" xml:space="preserve"><style type="text/css">.st0{fill:url(#SVGID_1_)}.st1{fill:#fff}.st2{fill:url(#SVGID_2_)}.st3{fill:url(#SVGID_3_)}.st4{fill:url(#SVGID_4_)}.st5{fill:url(#SVGID_5_)}.st6{fill:url(#SVGID_6_)}.st7{fill:url(#SVGID_7_)}.st8{fill:url(#SVGID_8_)}</style><linearGradient id="SVGID_1_" x1="384.567" x2="347.275" y1="-1687.178" y2="-1687.178" gradientTransform="matrix(0 1 -1 0 -1667.1785 -346.0419)" gradientUnits="userSpaceOnUse"><stop offset=".001" style="stop-color:#1f212e"/><stop offset=".147" style="stop-color:#252839"/><stop offset=".699" style="stop-color:#3b415c"/><stop offset=".995" style="stop-color:#434a6a"/></linearGradient><path d="M37,26.2V13.6c0-2.1-1.1-4.1-3-5.2L23,2.1c-1.9-1.1-4.1-1.1-6,0L6,8.4c-1.9,1.1-3,3.1-3,5.2v12.6	c0,2.1,1.1,4.1,3,5.2l11,6.3c1.9,1.1,4.1,1.1,6,0l11-6.3C35.8,30.3,37,28.4,37,26.2z" class="st0"/><title>Asset 1</title><g><path d="M18.7,19.5l8.2-3.6l-12.3-3.1L18.7,19.5z" class="st1" transform="matrix(1.00121,0,0,1.00121,-1.53286,-3.53476)"/><path d="M22,24.9l-3.3-5.4l8.2-3.6L22,24.9z" class="st1" transform="matrix(1.00121,0,0,1.00121,-1.53286,-3.53476)"/><path d="M20.3,28l-6-9.6l1.7,9.2L20.3,28z" class="st1" transform="matrix(1.00121,0,0,1.00121,-1.53286,-3.53476)"/><path d="M20.3,28L16,27.6l1.1,6.3L20.3,28z" class="st1" transform="matrix(1.00121,0,0,1.00121,-1.53286,-3.53476)"/><path d="M29.9,27.7v-11l-4.8,8.9L29.9,27.7z" class="st1" transform="matrix(1.00121,0,0,1.00121,-1.53286,-3.53476)"/><path d="M29.9,27.7l-4.8-2l-4.5,8.2L29.9,27.7z" class="st1" transform="matrix(1.00121,0,0,1.00121,-1.53286,-3.53476)"/></g><linearGradient id="SVGID_2_" x1="-284.175" x2="-284.118" y1="416.577" y2="416.577" gradientTransform="matrix(190.8275 99.085 99.085 -190.8275 12964.6309 107661.6406)" gradientUnits="userSpaceOnUse"><stop offset="0" style="stop-color:#0ef0fe"/><stop offset="1" style="stop-color:#d275f7"/></linearGradient><path d="M17.2,16l8.2-3.6L13,9.4L17.2,16z" class="st2"/><linearGradient id="SVGID_3_" x1="-283.889" x2="-283.865" y1="416.726" y2="416.726" gradientTransform="matrix(-2.1658 80.9984 80.9984 2.1658 -34347.6563 22105.1777)" gradientUnits="userSpaceOnUse"><stop offset="0" style="stop-color:#7a87f7"/><stop offset="1" style="stop-color:#d275f7"/></linearGradient><path d="M17.2,16l8.2-3.6" class="st3"/><linearGradient id="SVGID_4_" x1="-284.605" x2="-284.548" y1="417.632" y2="417.632" gradientTransform="matrix(72.3869 114.4109 114.4109 -72.3869 -27166.1016 62812.7148)" gradientUnits="userSpaceOnUse"><stop offset="0" style="stop-color:#d275f7"/><stop offset="1" style="stop-color:#7a87f7"/></linearGradient><path d="M18.8,24.5l-6-9.6l1.7,9.2L18.8,24.5z" class="st4"/><linearGradient id="SVGID_5_" x1="-285.999" x2="-285.942" y1="417.26" y2="417.26" gradientTransform="matrix(-24.8032 87.8224 87.8224 24.8032 -43721.8438 14792.3115)" gradientUnits="userSpaceOnUse"><stop offset="0" style="stop-color:#d275f7"/><stop offset="1" style="stop-color:#fa9d3e"/></linearGradient><path d="M18.8,24.5l-4.3-0.4l1.1,6.3L18.8,24.5z" class="st5"/><linearGradient id="SVGID_6_" x1="-283.713" x2="-283.656" y1="416.019" y2="416.019" gradientTransform="matrix(-64.7383 76.2409 76.2409 64.7383 -50055.3281 -5284.2217)" gradientUnits="userSpaceOnUse"><stop offset="0" style="stop-color:#d275f7"/><stop offset="1" style="stop-color:#7a87f7"/></linearGradient><path d="M28.4,24.2v-11l-4.9,8.9L28.4,24.2z" class="st6"/><linearGradient id="SVGID_7_" x1="-284.391" x2="-284.334" y1="417.617" y2="417.617" gradientTransform="matrix(139.1294 -155.8265 -155.8265 -139.1294 104662.7578 13817.2021)" gradientUnits="userSpaceOnUse"><stop offset="0" style="stop-color:#d275f7"/><stop offset="1" style="stop-color:#0ef0fe"/></linearGradient><path d="M28.4,24.2l-4.9-2l-4.5,8.2L28.4,24.2z" class="st7"/><linearGradient id="SVGID_8_" x1="-283.876" x2="-283.819" y1="416.726" y2="416.726" gradientTransform="matrix(-2.1658 80.9984 80.9984 2.1658 -34347.6563 22105.1777)" gradientUnits="userSpaceOnUse"><stop offset="0" style="stop-color:#7a87f7"/><stop offset="1" style="stop-color:#d275f7"/></linearGradient><path d="M20.5,21.4L17.2,16l8.2-3.6L20.5,21.4z" class="st8"/></svg>