<svg xmlns="http://www.w3.org/2000/svg" xmlns:xlink="http://www.w3.org/1999/xlink" id="Layer_1" x="0" y="0" version="1.1" viewBox="0 0 40 40" style="enable-background:new 0 0 40 40" xml:space="preserve"><style type="text/css">.st0{fill:url(#SVGID_1_)}.st1{fill:#fff}</style><linearGradient id="SVGID_1_" x1="256.792" x2="294.084" y1="1824.278" y2="1824.278" gradientTransform="matrix(6.123234e-17 1 1 -6.123234e-17 -1804.1785 -255.4169)" gradientUnits="userSpaceOnUse"><stop offset=".001" style="stop-color:#a076e9"/><stop offset="1" style="stop-color:#411988"/></linearGradient><path d="M37.1,26.3V13.7c0-2.1-1.1-4.1-3-5.2l-11-6.3c-1.8-1.1-4.2-1.1-6,0l-11,6.3c-1.9,1.1-3,3.1-3,5.2v12.6	c0,2.1,1.1,4.1,3,5.2l11,6.3c1.8,1.1,4.2,1.1,6,0l11-6.3C35.8,30.4,37.1,28.5,37.1,26.3z" class="st0"/><title>Asset 1</title><g><path d="M25.3,16.6c-0.4-0.2-0.8-0.2-1.2,0l-2.8,1.7l-1.9,1.1L16.5,21c-0.4,0.2-0.8,0.2-1.2,0l-2.2-1.3 c-0.4-0.2-0.6-0.6-0.6-1.1v-2.5c0-0.4,0.2-0.8,0.6-1.1l2.2-1.3c0.4-0.2,0.8-0.2,1.2,0l2.2,1.3c0.4,0.2,0.6,0.6,0.6,1.1v1.7l1.9-1.1 V15c0-0.4-0.2-0.8-0.6-1.1l-4-2.4c-0.4-0.2-0.8-0.2-1.2,0L11.2,14c-0.4,0.2-0.6,0.6-0.6,1v4.7c0,0.4,0.2,0.8,0.6,1.1l4.1,2.4 c0.4,0.2,0.8,0.2,1.2,0l2.8-1.6l1.9-1.1l2.8-1.6c0.4-0.2,0.8-0.2,1.2,0l2.2,1.3c0.4,0.2,0.6,0.6,0.6,1.1v2.5c0,0.4-0.2,0.8-0.6,1.1 L25.3,26c-0.4,0.2-0.8,0.2-1.2,0l-2.2-1.3c-0.4-0.2-0.6-0.6-0.6-1.1v-1.6l-1.9,1.1v1.7c0,0.4,0.2,0.8,0.6,1.1l4.1,2.4 c0.4,0.2,0.8,0.2,1.2,0l4.1-2.4c0.4-0.2,0.6-0.6,0.6-1.1V20c0-0.4-0.2-0.8-0.6-1.1L25.3,16.6z" class="st1"/></g></svg>