<svg xmlns="http://www.w3.org/2000/svg" xmlns:xlink="http://www.w3.org/1999/xlink" id="Layer_1" x="0" y="0" version="1.1" viewBox="0 0 40 40" style="enable-background:new 0 0 40 40" xml:space="preserve"><style type="text/css">.st0{fill:url(#SVGID_1_)}.st1,.st2{fill:none;stroke:url(#SVGID_2_);stroke-miterlimit:10}.st2{stroke:url(#SVGID_3_);stroke-width:.869}.st3{fill:#fff}</style><linearGradient id="SVGID_1_" x1="20" x2="20" y1="-.028" y2="38.121" gradientUnits="userSpaceOnUse"><stop offset="0" style="stop-color:#3f4d69"/><stop offset="1" style="stop-color:#262d33"/></linearGradient><path d="M37,26.3V13.7c0-2.1-1.1-4.1-3-5.2L23,2.2c-1.9-1.1-4.1-1.1-6,0L6,8.5c-1.9,1.1-3,3.1-3,5.2v12.6	c0,2.1,1.1,4.1,3,5.2l11,6.3c1.9,1.1,4.1,1.1,6,0l11-6.3C35.8,30.4,37,28.5,37,26.3z" class="st0"/><linearGradient id="SVGID_2_" x1="1581.74" x2="2037.908" y1="-148.627" y2="307.541" gradientUnits="userSpaceOnUse"><stop offset="0" style="stop-color:#455df0"/><stop offset="1" style="stop-color:#345d9d"/></linearGradient><rect width="297.2" height="613.1" x="1661.2" y="-227.1" class="st1"/><linearGradient id="SVGID_3_" x1="1297.516" x2="1708.553" y1="-458.814" y2="-47.778" gradientUnits="userSpaceOnUse"><stop offset="0" style="stop-color:#455df0"/><stop offset="1" style="stop-color:#345d9d"/></linearGradient><polygon points="1661.2 -1.7 1206.6 -277.7 1206.6 -367 1661.2 -367" class="st2"/><g id="Canvas"><g id="xrp-symbol-black"><path id="Vector" d="M27.4,11.3h3l-6.3,6.3c-2.3,2.3-6,2.3-8.3,0l-6.3-6.3h3l4.8,4.8c1.4,1.4,3.8,1.4,5.2,0L27.4,11.3 z" class="st3"/><path id="Vector_2" d="M12.5,28.7h-3l6.4-6.3c2.3-2.3,6-2.3,8.3,0l6.4,6.3h-3l-4.8-4.8c-1.4-1.4-3.8-1.4-5.2,0 L12.5,28.7z" class="st3"/></g></g></svg>