<svg xmlns="http://www.w3.org/2000/svg" xmlns:xlink="http://www.w3.org/1999/xlink" id="Layer_1" x="0" y="0" version="1.1" viewBox="0 0 40 40" style="enable-background:new 0 0 40 40" xml:space="preserve"><style type="text/css">.st0{fill:url(#SVGID_1_)}.st1{fill:#fff}</style><linearGradient id="SVGID_1_" x1="294.567" x2="257.275" y1="1819.178" y2="1819.178" gradientTransform="matrix(0 1 1 0 -1799.1785 -256.0419)" gradientUnits="userSpaceOnUse"><stop offset=".001" style="stop-color:#b6509e"/><stop offset="1" style="stop-color:#2ebac6"/></linearGradient><path d="M37,26.2V13.6c0-2.1-1.1-4.1-3-5.2L23,2.1c-1.9-1.1-4.1-1.1-6,0L6,8.4c-1.9,1.1-3,3.1-3,5.2v12.6	c0,2.1,1.1,4.1,3,5.2l11,6.3c1.9,1.1,4.1,1.1,6,0l11-6.3C35.8,30.3,37,28.4,37,26.2z" class="st0"/><title>Asset 1</title><path d="M29.1,27.3l-6.9-16.6c-0.4-0.9-1-1.3-1.7-1.3h-0.6c-0.8,0-1.3,0.4-1.7,1.3l-3,7.2h-2.3c-0.7,0-1.2,0.6-1.2,1.2	l0,0c0,0.7,0.6,1.2,1.2,1.2h1.2l-2.9,6.9c-0.1,0.2-0.1,0.3-0.1,0.5c0,0.3,0.1,0.7,0.3,0.9c0.2,0.2,0.6,0.4,0.9,0.4	c0.3,0,0.5-0.1,0.7-0.2c0.2-0.2,0.4-0.4,0.5-0.6l3.1-7.8H19c0.7,0,1.2-0.6,1.2-1.2l0,0c0-0.7-0.6-1.2-1.2-1.2h-1.2l2.4-6l6.5,16.3	c0.1,0.2,0.3,0.5,0.5,0.6c0.2,0.2,0.5,0.2,0.7,0.2c0.3,0,0.7-0.1,0.9-0.4c0.2-0.3,0.4-0.6,0.3-0.9C29.2,27.7,29.2,27.5,29.1,27.3z" class="st1"/></svg>