<svg xmlns="http://www.w3.org/2000/svg" xmlns:xlink="http://www.w3.org/1999/xlink" id="Layer_1" x="0" y="0" version="1.1" viewBox="0 0 40 40" style="enable-background:new 0 0 40 40" xml:space="preserve"><style type="text/css">.st0{fill:url(#SVGID_1_)}.st1{fill:#fff}</style><linearGradient id="SVGID_1_" x1="177.417" x2="214.709" y1="-1119.178" y2="-1119.178" gradientTransform="matrix(0 1 -1 0 -1099.1785 -176.0419)" gradientUnits="userSpaceOnUse"><stop offset="0" style="stop-color:#565a81"/><stop offset=".913" style="stop-color:#242447"/></linearGradient><path d="M37,26.3V13.7c0-2.1-1.1-4.1-3-5.2L23,2.2c-1.9-1.1-4.1-1.1-6,0L6,8.5c-1.9,1.1-3,3.1-3,5.2v12.6	c0,2.1,1.1,4.1,3,5.2l11,6.3c1.9,1.1,4.1,1.1,6,0l11-6.3C35.8,30.4,37,28.5,37,26.3z" class="st0"/><g><polygon points="14.3 20.2 14.3 20.2 15.3 20.8 20.4 23.8 20.4 23.8 26.6 20.2 20.4 10 20.4 10 20.4 10 20.4 10 20.4 10" class="st1"/><polygon points="26.6 21.4 20.4 25 20.4 25 14.3 21.4 20.4 30 20.4 30" class="st1"/></g></svg>