<svg xmlns="http://www.w3.org/2000/svg" xmlns:xlink="http://www.w3.org/1999/xlink" id="Layer_1" x="0" y="0" version="1.1" viewBox="0 0 40 40" style="enable-background:new 0 0 40 40" xml:space="preserve"><style type="text/css">.st0{fill:url(#SVGID_1_)}.st1{fill:#f7ebd1}.st2{opacity:.2;fill:#3d006f;enable-background:new}.st3{fill:#fff}.st4{fill:none;stroke:#3d006f;stroke-width:.5;stroke-miterlimit:10}.st5{fill:#ff6c6c}.st6{fill:#3d006f}.st7{opacity:.6}</style><linearGradient id="SVGID_1_" x1="654.567" x2="617.275" y1="-2917.178" y2="-2917.178" gradientTransform="matrix(0 1 -1 0 -2897.1785 -616.0419)" gradientUnits="userSpaceOnUse"><stop offset=".005" style="stop-color:#cfbbb9"/><stop offset="1" style="stop-color:#f9f4e9"/></linearGradient><path d="M37,26.2V13.6c0-2.1-1.1-4.1-3-5.2L23,2.1c-1.9-1.1-4.1-1.1-6,0L6,8.4c-1.9,1.1-3,3.1-3,5.2v12.6	c0,2.1,1.1,4.1,3,5.2l11,6.3c1.9,1.1,4.1,1.1,6,0l11-6.3C35.8,30.3,37,28.4,37,26.2z" class="st0"/><title>Asset 1</title><g id="Head_1_"><g><path d="M29.1,10.3c-0.9-0.6-3.9,0.8-5.1,1.8c-3.7-1.5-6.7-0.4-7.6,0.1c-3.2-1.5-5.5-2.3-6.1-0.6s0.3,5.6,0.9,7 c-1.4,5.3-0.9,8.1,0.8,9.6c1.7,1.6,4.6,1.6,6.8,1.7l3.7,0c4.8,0,7.1-2.1,7.4-4.2c0.3-2.2-0.3-5.6-1.2-8 C30.3,14.1,30,10.9,29.1,10.3z" class="st1"/><path d="M29.3,24.6c-0.7,1.4-3.2,3.8-9.1,4.1c-5.2,0.2-7.8-1.6-9.3-4c0.4,2.2,1.8,4.1,5.3,4.9c-0.1,0-0.2,0-0.4,0 c1,0.1,2,0.1,2.9,0.2l3.7,0c1,0,2-0.1,2.8-0.3l-0.1,0C27.5,28.8,29.2,27.5,29.3,24.6z" class="st2"/><path d="M10.5,25.6l0.3-0.1c-0.1-0.5,0-3.5,0.6-5.7s1.4-4.3,3.4-5.9s3.9-1.6,4.8-1.7c0.9-0.1,3.7-0.2,5.7,1.7 c2,1.9,4,6.1,4.3,10.7c0.2-0.7-0.2-4.3-0.7-5.9l-0.6-1.2c0,0-0.2-0.5-0.5-1c0-0.3-0.2-0.7-0.2-0.7s-1.6-2.2-2.6-2.7 c-0.2-0.1-0.5-0.3-0.5-0.3c0.8-0.6,2.4-1.7,3.4-1.9c1-0.2,1.2,0.4,1.4,1.7c0.2-0.4,0.1-2-0.5-2.2c-0.6-0.2-2.6-0.1-5,1.8 c-1.4-0.5-4.9-1.3-7.6,0c-1.6-0.7-3.8-1.7-4.8-1.4s-1.5,0.5-1.3,2.8c0.1-1.2,0.2-2.3,1.4-2.1c1.1,0.1,2.9,0.9,3.9,1.6 c-0.3,0.2-0.7,0.3-0.9,0.6c-0.4,0.1-0.6,0.1-0.6,0.1l-1.9,2.5l-0.2,1.2c0,0-0.3,0.8-0.4,1.2l-0.4,0.2 C11.1,18.8,10.1,23.8,10.5,25.6z" class="st3"/><path d="M22.9,12.5c0,0.4-1.1,0.8-2.5,0.8c-1.4,0-2.5-0.3-2.5-0.7c0-0.4,1.1-0.8,2.5-0.8 C21.7,11.7,22.9,12.1,22.9,12.5z" class="st3"/><path d="M29.1,10.3c-0.9-0.6-3.9,0.8-5.1,1.8c-3.7-1.5-6.7-0.4-7.6,0.1c-3.2-1.5-5.5-2.3-6.1-0.6s0.3,5.6,0.9,7 c-1.4,5.3-0.9,8.1,0.8,9.6c1.7,1.6,4.6,1.6,6.8,1.7l3.7,0c4.8,0,7.1-2.1,7.4-4.2c0.3-2.2-0.3-5.6-1.2-8 C30.3,14.1,30,10.9,29.1,10.3z" class="st4"/></g><g><path d="M22.3,21.4c-2.2-0.4-4.4,0.1-4.4,0.1s-0.6-0.1-1.4,0.5c-0.8,0.7-0.4,2.7,0,3.5c0.4,0.8,1.7,3,3.5,3 c1.8,0,3.2-1,4.1-2.8C25,24,24.5,21.9,22.3,21.4z" class="st3"/></g><path d="M17.8,23.1c0,0,0.2-0.5,0.3-0.5c0,0.3,0.2,0.7,0.7,0.8c0.5,0.1,1.1-0.1,1.2-0.7l0.5,0c0.1,0.3,0.3,0.7,1,0.8 c0.6,0.1,1.1-0.2,1-0.6c0.2,0.4,0.3,0.8,0,0.9c-0.3,0.2-1.7,0.2-2.2-0.2C19.5,23.9,18.2,24.2,17.8,23.1z" class="st2"/><g><path d="M12.4,12.3C11,11.5,11.1,12.2,11,13c0,0.8,0.4,2.9,0.8,3.8c0.4-1.2,1.5-2.6,2.4-3.3 C14.3,13.5,13.9,13.1,12.4,12.3z" class="st5"/><path d="M11.1,13.9l0.3,0.6c-0.1-0.6-0.2-1.6,0.4-1.5c0.6,0.1,1.5,1.1,1.5,1.1l0.8-0.6c0,0-1.5-1.3-2.1-1.4 c-0.6-0.2-1-0.3-1,0.7C11,13.8,11.1,13.9,11.1,13.9z" class="st2"/><path d="M12.5,12.1c-0.7-0.4-1.1-0.5-1.4-0.3c-0.3,0.2-0.3,0.6-0.3,1c0,0.1,0,0.1,0,0.2c0,0.9,0.4,3,0.8,3.9l0.2,0.5 l0.2-0.5c0.4-1.1,1.5-2.5,2.3-3.2l0.2-0.2l-0.2-0.2C14.4,13.3,14,12.9,12.5,12.1z M11.9,16.2c-0.3-1-0.6-2.5-0.6-3.2 c0-0.1,0-0.1,0-0.2c0-0.3,0-0.6,0.1-0.6c0,0,0,0,0,0c0.1,0,0.3,0,0.9,0.3c0.9,0.5,1.3,0.8,1.6,1C13.1,14.1,12.3,15.2,11.9,16.2z" class="st6"/></g><g><path d="M27.5,11.7c-0.8,0.4-2,1.4-2,1.4c0.7,0.5,1.9,1.8,2.4,3c0.3-0.6,0.8-1.6,0.9-3.3C29,10.9,28.4,11.2,27.5,11.7 z" class="st5"/><path d="M28.8,13.6l-0.3,0.5c0.1-0.4,0.1-1.4-0.2-1.7c-0.3-0.3-1.4,1.1-1.6,1.4l-1.2-0.8c0,0,2.1-1.6,2.5-1.7 c0.4-0.1,0.7-0.1,0.8,0.3C29,12,28.8,13.6,28.8,13.6z" class="st2"/><path d="M28.7,11.2c-0.4-0.2-0.8,0-1.3,0.3c-0.9,0.4-2,1.4-2,1.4l-0.2,0.2l0.2,0.2c0.7,0.5,1.8,1.7,2.4,2.9l0.2,0.4 l0.2-0.4c0.4-0.6,0.9-1.6,0.9-3.4C29.2,11.8,29.1,11.4,28.7,11.2z M28.7,12.7c-0.1,1.4-0.4,2.3-0.7,2.9c-0.5-0.9-1.4-1.9-2.1-2.5 c0.4-0.3,1.1-0.9,1.7-1.2c0.3-0.2,0.7-0.4,0.8-0.3C28.6,11.6,28.7,11.8,28.7,12.7z" class="st6"/></g><g><path d="M14.6,19C14.6,19,14.6,19,14.6,19c-0.9,0.1-1.6,0.9-1.9,1.6c0,0,0.8-0.9,1.9-1c0,0,0,0,0,0 c0.6-0.1,1.2,0.4,1.9,1.3c0,0-0.2-1.4-1.1-1.8C15.2,19,14.9,19,14.6,19z" class="st6"/></g><g><path d="M25.2,19c-0.3,0-0.6,0.1-0.9,0.2c-1.1,0.6-0.7,1.6-0.7,1.6c0.1-0.5,0.9-1.2,1.7-1.2c1.3-0.1,2.1,1.1,2.1,1.1 C26.8,19.2,25.7,19,25.2,19z" class="st6"/></g><g><path d="M22.4,23c0.1,0.2,0.1,0.5-0.1,0.7c-0.2,0.2-0.5,0.3-0.8,0.3c-0.8-0.1-1.2-0.4-1.2-0.4l-0.1-0.1l-0.1,0.1 c0,0-0.9,0.5-1.6,0.2c-0.3-0.1-0.5-0.3-0.6-0.5c-0.1-0.2,0-0.4,0.1-0.5c0,0-0.6,0.2-0.4,0.7c0.1,0.2,0.3,0.5,0.8,0.7 c0.7,0.3,1.5,0,1.8-0.2c0.2,0.1,0.6,0.3,1.3,0.4c0.1,0,0.3,0,0.4,0c0.3,0,0.6-0.2,0.8-0.4C23,23.5,22.4,23,22.4,23z" class="st6"/></g><g><rect width=".9" height=".4" x="19.8" y="23" class="st6" transform="matrix(1.776056e-02 -0.9998 0.9998 1.776056e-02 -3.3306 43.0509)"/></g><g><g><path d="M21.5,24.1c-0.9-0.2-1.3-0.4-1.3-0.4s-1,0.5-1.7,0.2c-0.2-0.1-0.3-0.2-0.4-0.2c0.5,0.5,0.8,1.7,0.9,2.2 c0.3-0.5,0.9-0.3,1.2,0c0.2-0.3,0.7-0.3,0.9,0c0.1,0.1,0.1,0.1,0.1,0.2h0c0-0.5,0.6-1.6,1-1.9C22,24.1,21.8,24.1,21.5,24.1z" class="st6"/><path d="M21.5,23.9c-0.8-0.1-1.2-0.4-1.2-0.4l-0.1-0.1l-0.1,0.1c0,0-0.9,0.5-1.6,0.2c-0.1-0.1-0.3-0.1-0.3-0.2 l-0.3,0.3c0.4,0.4,0.7,1.5,0.8,2.1l0.1,0.5l0.3-0.4c0.1-0.1,0.2-0.2,0.4-0.2c0.2,0,0.4,0.1,0.5,0.2l0.2,0.2l0.2-0.2 c0.1-0.1,0.2-0.1,0.3-0.1c0.1,0,0.3,0,0.4,0.1c0,0,0.1,0.1,0.1,0.1l0,0.1h0.3V26c0-0.4,0.5-1.4,0.9-1.8l-0.2-0.3 C21.9,23.9,21.8,24,21.5,23.9z M21.1,25.5c-0.2-0.1-0.4-0.2-0.5-0.2c0,0,0,0-0.1,0c-0.1,0-0.3,0.1-0.4,0.1 c-0.2-0.1-0.4-0.2-0.6-0.2c-0.2,0-0.3,0-0.4,0.1c-0.1-0.4-0.2-0.9-0.4-1.3c0.6,0.1,1.3-0.1,1.6-0.2c0.2,0.1,0.6,0.3,1.3,0.4 c0.1,0,0.1,0,0.2,0C21.5,24.7,21.2,25.1,21.1,25.5z" class="st6"/></g></g><g><path d="M20.1,25.8c-0.2-0.3-0.8-0.4-1.2,0c-0.3,0.5-0.2,2.1,1.1,2.1c0.9,0,1.1-0.5,1.2-0.8c0.1-0.4,0.1-1-0.1-1.3 C20.8,25.5,20.4,25.5,20.1,25.8z" class="st5"/><path d="M19.1,26.5c0.1,0.7,0.4,1,1,1c0.6,0,0.9-0.4,0.8-1C20.6,27,19.6,27.4,19.1,26.5z" class="st2"/><path d="M20.5,25.4c-0.2,0-0.3,0.1-0.4,0.1c-0.2-0.1-0.4-0.2-0.6-0.2c-0.3,0-0.5,0.1-0.7,0.4c-0.2,0.3-0.3,1.1,0,1.7 c0.2,0.5,0.7,0.7,1.3,0.7c0.1,0,0.2,0,0.2,0c0.8-0.1,1-0.5,1.1-1c0.1-0.4,0.1-1.2-0.2-1.5C21,25.5,20.8,25.4,20.5,25.4z M21,27 c-0.1,0.3-0.2,0.7-1,0.7c-0.4,0-0.7-0.2-0.9-0.5c-0.2-0.5-0.2-1,0-1.3c0.1-0.1,0.2-0.2,0.4-0.2c0.2,0,0.4,0.1,0.5,0.2l0.2,0.2 l0.2-0.2c0.1-0.1,0.2-0.1,0.3-0.1c0.1,0,0.3,0,0.4,0.1C21.1,26.1,21.1,26.6,21,27z" class="st6"/></g><g><path d="M20.3,25.8l-0.2-0.1c0,0-0.3,0-0.3,0c0.1,0.1,0.2,0.9,0.2,0.9S20.2,25.9,20.3,25.8l-0.2-0.1L20.3,25.8z" class="st6"/></g><g><path d="M20.3,20.6c-1.3,0-2.1,0.7-2.9,1.3l5.5,0.3C22.5,21.7,21.7,20.6,20.3,20.6z" class="st3"/><path d="M20.3,20.4c-1.6-0.1-2.9,1.5-2.9,1.5c0.8-0.6,1.6-1.1,2.9-1.1c1.2,0,2,0.7,2.7,1.4 C23,22.2,22.4,20.5,20.3,20.4z" class="st6"/></g><g><path d="M20.4,21.2c-1.1,0-1.6,0.4-1.3,1c0.3,0.6,0.8,0.7,1.1,0.7c0.3,0.1,1-0.4,1.3-0.7 C21.7,21.9,21.5,21.2,20.4,21.2z" class="st6"/></g><g class="st7"><path d="M20.4,21.5c-0.6,0-0.9,0.1-0.8,0.2c0.2,0.1,0.4,0.1,0.6,0.1c0.2,0,0.6-0.1,0.7-0.1 C21.1,21.6,21,21.5,20.4,21.5z" class="st3"/></g></g></svg>