<svg xmlns="http://www.w3.org/2000/svg" xmlns:xlink="http://www.w3.org/1999/xlink" id="Layer_1" x="0" y="0" version="1.1" viewBox="0 0 40 40" style="enable-background:new 0 0 40 40" xml:space="preserve"><style type="text/css">.st0{fill:url(#SVGID_1_)}.st1,.st2{fill:none;stroke:url(#SVGID_2_);stroke-miterlimit:10}.st2{stroke:url(#SVGID_3_);stroke-width:.869}.st3{fill:#fff}</style><linearGradient id="SVGID_1_" x1="20" x2="20" y1="-2.74" y2="35.41" gradientUnits="userSpaceOnUse"><stop offset="0" style="stop-color:#694669"/><stop offset="1" style="stop-color:#340534"/></linearGradient><path d="M37,26.3V13.7c0-2.1-1.1-4.1-3-5.2L23,2.2c-1.9-1.1-4.1-1.1-6,0L6,8.5c-1.9,1.1-3,3.1-3,5.2v12.6	c0,2.1,1.1,4.1,3,5.2l11,6.3c1.9,1.1,4.1,1.1,6,0l11-6.3C35.8,30.4,37,28.5,37,26.3z" class="st0"/><linearGradient id="SVGID_2_" x1="1581.74" x2="2037.908" y1="-148.627" y2="307.541" gradientUnits="userSpaceOnUse"><stop offset="0" style="stop-color:#455df0"/><stop offset="1" style="stop-color:#345d9d"/></linearGradient><rect width="297.2" height="613.1" x="1661.2" y="-227.1" class="st1"/><linearGradient id="SVGID_3_" x1="1297.516" x2="1708.553" y1="-458.814" y2="-47.778" gradientUnits="userSpaceOnUse"><stop offset="0" style="stop-color:#455df0"/><stop offset="1" style="stop-color:#345d9d"/></linearGradient><polygon points="1661.2 -1.7 1206.6 -277.7 1206.6 -367 1661.2 -367" class="st2"/><path d="M20,9.5C14.2,9.5,9.5,14.2,9.5,20S14.2,30.5,20,30.5c5.8,0,10.5-4.7,10.5-10.5S25.8,9.5,20,9.5z M29.2,20	c0,0.9-0.1,1.8-0.4,2.6l-3.9-6.2l1.3-0.8v-2.3C28,14.9,29.2,17.3,29.2,20z M26.1,13.2L20,16.8l-6.1-3.6c1.6-1.5,3.8-2.4,6.1-2.4	S24.5,11.7,26.1,13.2z M13.8,13.3v2.3l1.3,0.8l-3.9,6.2c-0.2-0.8-0.4-1.7-0.4-2.6C10.8,17.3,12,14.9,13.8,13.3z M20,29.2	c-3.5,0-6.5-2-8.1-4.8h0.8l4.3-6.9l2.1,1.2l-0.2,5.7H20h1.2L21,18.7l2.1-1.2l4.3,6.9h0.8C26.5,27.2,23.5,29.2,20,29.2z" class="st3"/></svg>