<svg xmlns="http://www.w3.org/2000/svg" xmlns:xlink="http://www.w3.org/1999/xlink" id="Layer_1" x="0" y="0" version="1.1" viewBox="0 0 40 40" style="enable-background:new 0 0 40 40" xml:space="preserve"><style type="text/css">.st0{fill:url(#SVGID_1_)}.st1{fill:#fff}</style><title>venus</title><linearGradient id="SVGID_1_" x1="20" x2="20" y1="-38.625" y2="-1.375" gradientTransform="matrix(1 0 0 1 0 40)" gradientUnits="userSpaceOnUse"><stop offset="0" style="stop-color:#1a66f7"/><stop offset="1" style="stop-color:#1438cb"/></linearGradient><path d="M37,26.3V13.7c0-2.1-1.1-4.1-3-5.2L23,2.2c-1.8-1.1-4.2-1.1-6,0L6,8.5c-1.9,1.1-3,3.1-3,5.2v12.6	c0,2.1,1.1,4.1,3,5.2l11,6.3c1.8,1.1,4.2,1.1,6,0l11-6.3C35.8,30.4,37,28.4,37,26.3z" class="st0"/><path id="Path" d="M22.9,19.7H33v0.1l-15.8,9.6l7.8-6.2L22.9,19.7z M17,10.4v19.1l-8-6.4L17,10.4z" class="st1"/></svg>